<svg id="Layer_1" data-name="Layer 1" xmlns="http://www.w3.org/2000/svg" viewBox="0 0 499.4 147.1"><defs><style>.cls-1{fill:#cfff04;}.cls-2,.cls-3{isolation:isolate;}.cls-3{font-size:18.6px;fill:#fff;font-family:ArialMT, Arial;}</style></defs><path class="cls-1" d="M127.8,35.7c-.3-6.5-3-9.3-9.3-9.3H60.9c-6.5,0-9.1,2.8-9.3,9.2-.1,4.4,0,8.8,0,13.7-5.1,0-9.4-.1-13.6,0-5.9.2-8.5,2.7-8.8,8.6a112.2,112.2,0,0,0,0,11.6c.2,7.3,3.1,10,10.5,10h57v15h-17c-4.1.1-5.1,1.4-5.1,5.4v17H59.4c0-8.2.1-16.1,0-24,0-4.7-1.6-8.6-7.8-8.7v31.7c.3,6.2,2.9,8.8,9,9H73.4c5.6-.2,8.1-2.6,8.3-8.2.2-4.8.1-9.6.1-14.6h5.7c17.9.1,17.9,0,17.4-18-.3-9.8-2.5-12.5-12.2-12.5H59.4c-1.6-8.8-2.5-9.6-8-9.4v9.2H36.9V56.6h79.6c8.4,0,11.1-2.8,11.3-11.2,0-3.3.1-6.6,0-9.9h0Zm-8.2,13.2H59.4V34.5h60.2Z"/><g class="cls-2"><text class="cls-3" transform="translate(139.7 81.2)">FINPLAN ENGINEERING SOLUTIONS</text></g></svg>